<?xml version='1.0' encoding='utf-8'?>
<svg xmlns="http://www.w3.org/2000/svg" width="250" height="250" version="1.1" viewBox="0 0 66.146 66.146"> <defs> <clipPath id="b"> <circle cx="154.81" cy="421.34" r="19.305" clip-rule="nonzero" color="#000000" color-rendering="auto" enable-background="accumulate" fill="url(#linearGradient1669)" fill-rule="nonzero" image-rendering="auto" shape-rendering="auto" solid-color="#000000" style="isolation:auto;mix-blend-mode:normal;paint-order:stroke markers fill"/> </clipPath> <linearGradient id="a" x1="86.783" x2="63.5" y1="373.2" y2="337.22" gradientTransform="translate(.34001 -213.75)" gradientUnits="userSpaceOnUse"> <stop stop-color="#ececec" offset="0"/> <stop stop-color="#f6f6f6" offset="1"/> </linearGradient> </defs> <g transform="translate(-41.125 -102.79)"> <g transform="translate(3.2128 -2.8348)" clip-rule="nonzero" fill-rule="nonzero" shape-rendering="auto"> <circle cx="71.06" cy="139.01" r="29.934" color="#000000" color-rendering="auto" enable-background="accumulate" fill="url(#a)" image-rendering="auto" solid-color="#000000" style="isolation:auto;mix-blend-mode:normal;paint-order:stroke markers fill"/> <g transform="matrix(1.5506 0 0 1.5506 -168.99 -514.31)" clip-path="url(#b)"> <path d="m143.3 402.34c-1.4799 0-2.6921 1.2132-2.6921 2.6928v2.0066a0.68497 0.68497 0 0 0 0.0228 0.17323v19.831c0 1.9291 1.5744 3.5034 3.5034 3.5034h32.274c1.9291 0 3.5041-1.5743 3.5041-3.5034v-19.829a0.68497 0.68497 0 0 0 0.0228-0.17457v-2.0066c0-1.4799-1.2122-2.6928-2.6921-2.6928z" color="#000000" color-rendering="auto" dominant-baseline="auto" enable-background="accumulate" fill="#ccc" image-rendering="auto" solid-color="#000000" style="font-feature-settings:normal;font-variant-alternates:normal;font-variant-caps:normal;font-variant-ligatures:normal;font-variant-numeric:normal;font-variant-position:normal;isolation:auto;mix-blend-mode:normal;paint-order:markers fill stroke;shape-padding:0;text-decoration-color:#000000;text-decoration-line:none;text-decoration-style:solid;text-indent:0;text-orientation:mixed;text-transform:none;white-space:normal"/> <path d="m144.14 403.73h32.274c1.1939 0 2.1336 0.93966 2.1336 2.1336v21.179c0 1.1939-0.93967 2.1336-2.1336 2.1336h-32.274c-1.1939 0-2.1336-0.93967-2.1336-2.1336v-21.179c0-1.1939 0.93966-2.1336 2.1336-2.1336z" color="#000000" color-rendering="auto" dominant-baseline="auto" enable-background="accumulate" fill="#ececec" image-rendering="auto" solid-color="#000000" style="font-feature-settings:normal;font-variant-alternates:normal;font-variant-caps:normal;font-variant-ligatures:normal;font-variant-numeric:normal;font-variant-position:normal;isolation:auto;mix-blend-mode:normal;paint-order:markers fill stroke;shape-padding:0;text-decoration-color:#000000;text-decoration-line:none;text-decoration-style:solid;text-indent:0;text-orientation:mixed;text-transform:none;white-space:normal"/> <g transform="matrix(1.2943 0 0 1.2943 -118.27 369.9)" fill="#ccc" stroke-miterlimit="4" stroke-width="0"> <rect x="203.2" y="31.446" width="6.9434" height="1.7664" ry=".8832" color="#000000" color-rendering="auto" enable-background="accumulate" image-rendering="auto" opacity=".598" solid-color="#000000" style="isolation:auto;mix-blend-mode:normal;paint-order:markers fill stroke"/> <rect x="203.2" y="34.886" width="6.9434" height="1.7664" ry=".8832" color="#000000" color-rendering="auto" enable-background="accumulate" image-rendering="auto" opacity=".598" solid-color="#000000" style="isolation:auto;mix-blend-mode:normal;paint-order:markers fill stroke"/> <rect x="203.2" y="38.193" width="6.9434" height="1.7664" ry=".8832" color="#000000" color-rendering="auto" enable-background="accumulate" image-rendering="auto" opacity=".598" solid-color="#000000" style="isolation:auto;mix-blend-mode:normal;paint-order:markers fill stroke"/> <rect x="203.2" y="41.633" width="6.9434" height="1.7664" ry=".8832" color="#000000" color-rendering="auto" enable-background="accumulate" image-rendering="auto" opacity=".598" solid-color="#000000" style="isolation:auto;mix-blend-mode:normal;paint-order:markers fill stroke"/> </g> <g transform="matrix(1.2943 0 0 1.2943 -96.175 369.9)" fill="#ccc" stroke-miterlimit="4" stroke-width="0"> <rect x="203.2" y="31.446" width="6.9434" height="1.7664" ry=".8832" color="#000000" color-rendering="auto" enable-background="accumulate" image-rendering="auto" opacity=".598" solid-color="#000000" style="isolation:auto;mix-blend-mode:normal;paint-order:markers fill stroke"/> <rect x="203.2" y="34.886" width="6.9434" height="1.7664" ry=".8832" color="#000000" color-rendering="auto" enable-background="accumulate" image-rendering="auto" opacity=".598" solid-color="#000000" style="isolation:auto;mix-blend-mode:normal;paint-order:markers fill stroke"/> <rect x="203.2" y="38.193" width="6.9434" height="1.7664" ry=".8832" color="#000000" color-rendering="auto" enable-background="accumulate" image-rendering="auto" opacity=".598" solid-color="#000000" style="isolation:auto;mix-blend-mode:normal;paint-order:markers fill stroke"/> <rect x="203.2" y="41.633" width="6.9434" height="1.7664" ry=".8832" color="#000000" color-rendering="auto" enable-background="accumulate" image-rendering="auto" opacity=".598" solid-color="#000000" style="isolation:auto;mix-blend-mode:normal;paint-order:markers fill stroke"/> </g> <g transform="matrix(1.2943 0 0 1.2943 -119.27 371.66)" fill="#d8d8d8"> <path d="m213.39 29.822c-0.63129 0-1.1465 0.51714-1.1465 1.1484 0 0.6313 0.51519 1.1465 1.1465 1.1465h5.1777c0.6313 0 1.1465-0.51519 1.1465-1.1465 0-0.6313-0.51518-1.1484-1.1465-1.1484z" color="#000000" color-rendering="auto" dominant-baseline="auto" enable-background="accumulate" image-rendering="auto" solid-color="#000000" style="font-feature-settings:normal;font-variant-alternates:normal;font-variant-caps:normal;font-variant-ligatures:normal;font-variant-numeric:normal;font-variant-position:normal;isolation:auto;mix-blend-mode:normal;paint-order:markers fill stroke;shape-padding:0;text-decoration-color:#000000;text-decoration-line:none;text-decoration-style:solid;text-indent:0;text-orientation:mixed;text-transform:none;white-space:normal"/> <path d="m213.39 30.352h5.1777c0.34729 0 0.61914 0.27185 0.61914 0.61914s-0.27185 0.61719-0.61914 0.61719h-5.1777c-0.34729 0-0.61914-0.2699-0.61914-0.61719s0.27185-0.61914 0.61914-0.61914z" color="#000000" color-rendering="auto" dominant-baseline="auto" enable-background="accumulate" image-rendering="auto" solid-color="#000000" style="font-feature-settings:normal;font-variant-alternates:normal;font-variant-caps:normal;font-variant-ligatures:normal;font-variant-numeric:normal;font-variant-position:normal;isolation:auto;mix-blend-mode:normal;paint-order:markers fill stroke;shape-padding:0;text-decoration-color:#000000;text-decoration-line:none;text-decoration-style:solid;text-indent:0;text-orientation:mixed;text-transform:none;white-space:normal"/> <path transform="scale(.26458)" d="m804.2 117.28c0.1106 1.2014 1.0824 2.1094 2.3184 2.1094h19.57c0.78969 0 1.4709-0.37311 1.8926-0.95313-0.47117-0.70324-1.2728-1.1562-2.2012-1.1562z" color="#000000" color-rendering="auto" dominant-baseline="auto" enable-background="accumulate" image-rendering="auto" opacity=".1" solid-color="#000000" style="font-feature-settings:normal;font-variant-alternates:normal;font-variant-caps:normal;font-variant-ligatures:normal;font-variant-numeric:normal;font-variant-position:normal;isolation:auto;mix-blend-mode:normal;paint-order:markers fill stroke;shape-padding:0;text-decoration-color:#000000;text-decoration-line:none;text-decoration-style:solid;text-indent:0;text-orientation:mixed;text-transform:none;white-space:normal"/> <path d="m213.39 29.822c-0.63129 0-1.1465 0.51714-1.1465 1.1484 0 0.6313 0.51519 1.1465 1.1465 1.1465h5.1777c0.6313 0 1.1465-0.51519 1.1465-1.1465 0-0.6313-0.51518-1.1484-1.1465-1.1484z" color="#000000" color-rendering="auto" dominant-baseline="auto" enable-background="accumulate" image-rendering="auto" solid-color="#000000" style="font-feature-settings:normal;font-variant-alternates:normal;font-variant-caps:normal;font-variant-ligatures:normal;font-variant-numeric:normal;font-variant-position:normal;isolation:auto;mix-blend-mode:normal;paint-order:markers fill stroke;shape-padding:0;text-decoration-color:#000000;text-decoration-line:none;text-decoration-style:solid;text-indent:0;text-orientation:mixed;text-transform:none;white-space:normal"/> <path d="m213.39 30.352h5.1777c0.34729 0 0.61914 0.27185 0.61914 0.61914s-0.27185 0.61719-0.61914 0.61719h-5.1777c-0.34729 0-0.61914-0.2699-0.61914-0.61719s0.27185-0.61914 0.61914-0.61914z" color="#000000" color-rendering="auto" dominant-baseline="auto" enable-background="accumulate" image-rendering="auto" solid-color="#000000" style="font-feature-settings:normal;font-variant-alternates:normal;font-variant-caps:normal;font-variant-ligatures:normal;font-variant-numeric:normal;font-variant-position:normal;isolation:auto;mix-blend-mode:normal;paint-order:markers fill stroke;shape-padding:0;text-decoration-color:#000000;text-decoration-line:none;text-decoration-style:solid;text-indent:0;text-orientation:mixed;text-transform:none;white-space:normal"/> <path d="m212.78 31.03c0.0293 0.31788 0.28639 0.55811 0.6134 0.55811h5.178c0.20894 0 0.38919-0.09872 0.50074-0.25218-0.12466-0.18607-0.33677-0.30592-0.58239-0.30592z" color="#000000" color-rendering="auto" dominant-baseline="auto" enable-background="accumulate" image-rendering="auto" opacity=".1" solid-color="#000000" style="font-feature-settings:normal;font-variant-alternates:normal;font-variant-caps:normal;font-variant-ligatures:normal;font-variant-numeric:normal;font-variant-position:normal;isolation:auto;mix-blend-mode:normal;paint-order:markers fill stroke;shape-padding:0;text-decoration-color:#000000;text-decoration-line:none;text-decoration-style:solid;text-indent:0;text-orientation:mixed;text-transform:none;white-space:normal"/> <path d="m213.39 40.008c-0.63129 0-1.1465 0.51714-1.1465 1.1484 0 0.6313 0.51519 1.1465 1.1465 1.1465h5.1777c0.6313 0 1.1465-0.51519 1.1465-1.1465 0-0.6313-0.51518-1.1484-1.1465-1.1484z" color="#000000" color-rendering="auto" dominant-baseline="auto" enable-background="accumulate" image-rendering="auto" solid-color="#000000" style="font-feature-settings:normal;font-variant-alternates:normal;font-variant-caps:normal;font-variant-ligatures:normal;font-variant-numeric:normal;font-variant-position:normal;isolation:auto;mix-blend-mode:normal;paint-order:markers fill stroke;shape-padding:0;text-decoration-color:#000000;text-decoration-line:none;text-decoration-style:solid;text-indent:0;text-orientation:mixed;text-transform:none;white-space:normal"/> <path d="m213.39 40.537h5.1777c0.34729 0 0.61914 0.27185 0.61914 0.61914s-0.27185 0.61719-0.61914 0.61719h-5.1777c-0.34729 0-0.61914-0.2699-0.61914-0.61719s0.27185-0.61914 0.61914-0.61914z" color="#000000" color-rendering="auto" dominant-baseline="auto" enable-background="accumulate" image-rendering="auto" solid-color="#000000" style="font-feature-settings:normal;font-variant-alternates:normal;font-variant-caps:normal;font-variant-ligatures:normal;font-variant-numeric:normal;font-variant-position:normal;isolation:auto;mix-blend-mode:normal;paint-order:markers fill stroke;shape-padding:0;text-decoration-color:#000000;text-decoration-line:none;text-decoration-style:solid;text-indent:0;text-orientation:mixed;text-transform:none;white-space:normal"/> <path d="m212.78 41.215c0.0293 0.31788 0.28639 0.55811 0.6134 0.55811h5.178c0.20894 0 0.38919-0.09872 0.50074-0.25218-0.12466-0.18607-0.33677-0.30592-0.58239-0.30592z" color="#000000" color-rendering="auto" dominant-baseline="auto" enable-background="accumulate" image-rendering="auto" opacity=".1" solid-color="#000000" style="font-feature-settings:normal;font-variant-alternates:normal;font-variant-caps:normal;font-variant-ligatures:normal;font-variant-numeric:normal;font-variant-position:normal;isolation:auto;mix-blend-mode:normal;paint-order:markers fill stroke;shape-padding:0;text-decoration-color:#000000;text-decoration-line:none;text-decoration-style:solid;text-indent:0;text-orientation:mixed;text-transform:none;white-space:normal"/> <path d="m213.39 33.217c-0.63129 0-1.1465 0.51714-1.1465 1.1484 0 0.6313 0.51519 1.1465 1.1465 1.1465h5.1777c0.6313 0 1.1465-0.51519 1.1465-1.1465 0-0.6313-0.51518-1.1484-1.1465-1.1484z" color="#000000" color-rendering="auto" dominant-baseline="auto" enable-background="accumulate" image-rendering="auto" solid-color="#000000" style="font-feature-settings:normal;font-variant-alternates:normal;font-variant-caps:normal;font-variant-ligatures:normal;font-variant-numeric:normal;font-variant-position:normal;isolation:auto;mix-blend-mode:normal;paint-order:markers fill stroke;shape-padding:0;text-decoration-color:#000000;text-decoration-line:none;text-decoration-style:solid;text-indent:0;text-orientation:mixed;text-transform:none;white-space:normal"/> <path d="m213.39 33.747h5.1777c0.34729 0 0.61914 0.27185 0.61914 0.61914s-0.27185 0.61719-0.61914 0.61719h-5.1777c-0.34729 0-0.61914-0.2699-0.61914-0.61719s0.27185-0.61914 0.61914-0.61914z" color="#000000" color-rendering="auto" dominant-baseline="auto" enable-background="accumulate" image-rendering="auto" solid-color="#000000" style="font-feature-settings:normal;font-variant-alternates:normal;font-variant-caps:normal;font-variant-ligatures:normal;font-variant-numeric:normal;font-variant-position:normal;isolation:auto;mix-blend-mode:normal;paint-order:markers fill stroke;shape-padding:0;text-decoration-color:#000000;text-decoration-line:none;text-decoration-style:solid;text-indent:0;text-orientation:mixed;text-transform:none;white-space:normal"/> <path d="m212.78 34.425c0.0293 0.31788 0.28639 0.55811 0.6134 0.55811h5.178c0.20894 0 0.38919-0.09872 0.50074-0.25218-0.12466-0.18607-0.33677-0.30592-0.58239-0.30592z" color="#000000" color-rendering="auto" dominant-baseline="auto" enable-background="accumulate" image-rendering="auto" opacity=".1" solid-color="#000000" style="font-feature-settings:normal;font-variant-alternates:normal;font-variant-caps:normal;font-variant-ligatures:normal;font-variant-numeric:normal;font-variant-position:normal;isolation:auto;mix-blend-mode:normal;paint-order:markers fill stroke;shape-padding:0;text-decoration-color:#000000;text-decoration-line:none;text-decoration-style:solid;text-indent:0;text-orientation:mixed;text-transform:none;white-space:normal"/> <path d="m213.39 36.613c-0.63129 0-1.1465 0.51714-1.1465 1.1484 0 0.6313 0.51519 1.1465 1.1465 1.1465h5.1777c0.6313 0 1.1465-0.51519 1.1465-1.1465 0-0.6313-0.51518-1.1484-1.1465-1.1484z" color="#000000" color-rendering="auto" dominant-baseline="auto" enable-background="accumulate" image-rendering="auto" solid-color="#000000" style="font-feature-settings:normal;font-variant-alternates:normal;font-variant-caps:normal;font-variant-ligatures:normal;font-variant-numeric:normal;font-variant-position:normal;isolation:auto;mix-blend-mode:normal;paint-order:markers fill stroke;shape-padding:0;text-decoration-color:#000000;text-decoration-line:none;text-decoration-style:solid;text-indent:0;text-orientation:mixed;text-transform:none;white-space:normal"/> <path d="m213.39 37.142h5.1777c0.34729 0 0.61914 0.27185 0.61914 0.61914s-0.27185 0.61719-0.61914 0.61719h-5.1777c-0.34729 0-0.61914-0.2699-0.61914-0.61719s0.27185-0.61914 0.61914-0.61914z" color="#000000" color-rendering="auto" dominant-baseline="auto" enable-background="accumulate" image-rendering="auto" solid-color="#000000" style="font-feature-settings:normal;font-variant-alternates:normal;font-variant-caps:normal;font-variant-ligatures:normal;font-variant-numeric:normal;font-variant-position:normal;isolation:auto;mix-blend-mode:normal;paint-order:markers fill stroke;shape-padding:0;text-decoration-color:#000000;text-decoration-line:none;text-decoration-style:solid;text-indent:0;text-orientation:mixed;text-transform:none;white-space:normal"/> <path d="m212.78 37.82c0.0293 0.31788 0.28639 0.55811 0.6134 0.55811h5.178c0.20894 0 0.38919-0.09872 0.50074-0.25218-0.12466-0.18606-0.33677-0.30592-0.58239-0.30592z" color="#000000" color-rendering="auto" dominant-baseline="auto" enable-background="accumulate" image-rendering="auto" opacity=".1" solid-color="#000000" style="font-feature-settings:normal;font-variant-alternates:normal;font-variant-caps:normal;font-variant-ligatures:normal;font-variant-numeric:normal;font-variant-position:normal;isolation:auto;mix-blend-mode:normal;paint-order:markers fill stroke;shape-padding:0;text-decoration-color:#000000;text-decoration-line:none;text-decoration-style:solid;text-indent:0;text-orientation:mixed;text-transform:none;white-space:normal"/> </g> <path d="m143.3 402.34c-1.4799 0-2.6921 1.2132-2.6921 2.6928v2.0066a0.68497 0.68497 0 0 0 0.68489 0.68558h37.957a0.68497 0.68497 0 0 0 0.6849-0.68558v-2.0066c0-1.4799-1.2122-2.6928-2.6921-2.6928z" color="#000000" color-rendering="auto" dominant-baseline="auto" enable-background="accumulate" fill="#ccc" image-rendering="auto" solid-color="#000000" style="font-feature-settings:normal;font-variant-alternates:normal;font-variant-caps:normal;font-variant-ligatures:normal;font-variant-numeric:normal;font-variant-position:normal;isolation:auto;mix-blend-mode:normal;paint-order:markers fill stroke;shape-padding:0;text-decoration-color:#000000;text-decoration-line:none;text-decoration-style:solid;text-indent:0;text-orientation:mixed;text-transform:none;white-space:normal"/> </g> <g transform="translate(-85.721 -278.7)"> <path d="m162.75 396.86c-10.432 2.3e-4 -18.906 8.4744-18.907 18.907-1e-3 10.433 8.4733 18.909 18.907 18.91 10.435 1e-3 18.911-8.4752 18.91-18.91a0.81589 0.81589 0 0 0-0.81602-0.81601h-17.278v-17.275a0.81589 0.81589 0 0 0-0.81601-0.816z" color="#000000" color-rendering="auto" dominant-baseline="auto" enable-background="accumulate" fill="#636363" image-rendering="auto" solid-color="#000000" style="font-feature-settings:normal;font-variant-alternates:normal;font-variant-caps:normal;font-variant-ligatures:normal;font-variant-numeric:normal;font-variant-position:normal;isolation:auto;mix-blend-mode:normal;paint-order:markers fill stroke;shape-padding:0;text-decoration-color:#000000;text-decoration-line:none;text-decoration-style:solid;text-indent:0;text-orientation:mixed;text-transform:none;white-space:normal"/> <path d="m161.93 398.66v17.109a0.81589 0.81589 0 0 0 0.81601 0.81601h17.112c-0.44794 9.1504-7.8491 16.463-17.112 16.462-9.5516-2.2e-4 -17.279-7.7262-17.278-17.278 2e-4 -9.2609 7.3134-16.66 16.462-17.109z" color="#000000" color-rendering="auto" dominant-baseline="auto" enable-background="accumulate" fill="#59f" image-rendering="auto" solid-color="#000000" style="font-feature-settings:normal;font-variant-alternates:normal;font-variant-caps:normal;font-variant-ligatures:normal;font-variant-numeric:normal;font-variant-position:normal;isolation:auto;mix-blend-mode:normal;paint-order:markers fill stroke;shape-padding:0;text-decoration-color:#000000;text-decoration-line:none;text-decoration-style:solid;text-indent:0;text-orientation:mixed;text-transform:none;white-space:normal"/> <g transform="matrix(1.5417 0 0 1.5417 12.514 360.28)"> <path d="m100.23 21.174a0.52922 0.52922 0 0 0-0.5293 0.5293v11.734a0.52922 0.52922 0 0 0 0.5293 0.5293h11.734a0.52922 0.52922 0 0 0 0.52929-0.5293c0-6.767-5.4966-12.264-12.264-12.264z" color="#000000" color-rendering="auto" dominant-baseline="auto" enable-background="accumulate" fill="#636363" image-rendering="auto" solid-color="#000000" style="font-feature-settings:normal;font-variant-alternates:normal;font-variant-caps:normal;font-variant-ligatures:normal;font-variant-numeric:normal;font-variant-position:normal;isolation:auto;mix-blend-mode:normal;paint-order:markers fill stroke;shape-padding:0;text-decoration-color:#000000;text-decoration-line:none;text-decoration-style:solid;text-indent:0;text-orientation:mixed;text-transform:none;white-space:normal"/> <path d="m100.76 22.34c5.7485 0.28226 10.286 4.8199 10.568 10.568h-10.568z" color="#000000" color-rendering="auto" dominant-baseline="auto" enable-background="accumulate" fill="#59f" image-rendering="auto" solid-color="#000000" style="font-feature-settings:normal;font-variant-alternates:normal;font-variant-caps:normal;font-variant-ligatures:normal;font-variant-numeric:normal;font-variant-position:normal;isolation:auto;mix-blend-mode:normal;paint-order:markers fill stroke;shape-padding:0;text-decoration-color:#000000;text-decoration-line:none;text-decoration-style:solid;text-indent:0;text-orientation:mixed;text-transform:none;white-space:normal"/> <path transform="scale(.26458)" d="m380.83 91.982v32.395h31.791c-4.5803-15.424-16.495-27.534-31.791-32.395z" color="#000000" color-rendering="auto" dominant-baseline="auto" enable-background="accumulate" fill="#000" image-rendering="auto" opacity=".1" solid-color="#000000" style="font-feature-settings:normal;font-variant-alternates:normal;font-variant-caps:normal;font-variant-ligatures:normal;font-variant-numeric:normal;font-variant-position:normal;isolation:auto;mix-blend-mode:normal;paint-order:markers fill stroke;shape-padding:0;text-decoration-color:#000000;text-decoration-line:none;text-decoration-style:solid;text-indent:0;text-orientation:mixed;text-transform:none;white-space:normal"/> </g> </g> </g> </g> </svg>