<?xml version="1.0" standalone="no"?>
<!DOCTYPE svg PUBLIC "-//W3C//DTD SVG 20010904//EN" "http://www.w3.org/TR/2001/REC-SVG-20010904/DTD/svg10.dtd">
<svg version="1.0" xmlns="http://www.w3.org/2000/svg"
    width="512.000000pt" height="512.000000pt" viewBox="0 0 512.000000 512.000000"
    preserveAspectRatio="xMidYMid meet">

    <g transform="translate(0.000000,512.000000) scale(0.100000,-0.100000)"
        fill="currentColor" stroke="none">
        <path
            d="M75 5110 c-11 -4 -31 -20 -45 -35 l-25 -27 0 -2489 0 -2489 33 -32
32 -33 2490 0 2490 0 32 33 33 32 0 2490 0 2490 -33 32 -32 33 -2478 2 c-1362
1 -2486 -2 -2497 -7z m1593 -942 l-3 -713 -712 -3 -713 -2 0 715 0 715 715 0
715 0 -2 -712z m1542 -3 l0 -715 -650 0 -650 0 0 715 0 715 650 0 650 0 0
-715z m1670 0 l0 -715 -712 2 -713 3 -3 713 -2 712 715 0 715 0 0 -715z
m-3210 -1605 l0 -650 -715 0 -715 0 0 650 0 650 715 0 715 0 0 -650z m1540 0
l0 -650 -650 0 -650 0 0 650 0 650 650 0 650 0 0 -650z m1670 0 l0 -650 -715
0 -715 0 0 650 0 650 715 0 715 0 0 -650z m-3212 -1607 l2 -713 -715 0 -715 0
0 715 0 715 713 -2 712 -3 3 -712z m1542 2 l0 -715 -650 0 -650 0 0 715 0 715
650 0 650 0 0 -715z m1670 0 l0 -715 -715 0 -715 0 0 708 c0 390 3 712 7 715
3 4 325 7 715 7 l708 0 0 -715z" />
    </g>
</svg>