<?xml version="1.0" standalone="no"?>
<!DOCTYPE svg PUBLIC "-//W3C//DTD SVG 20010904//EN" "http://www.w3.org/TR/2001/REC-SVG-20010904/DTD/svg10.dtd">
<svg version="1.0" xmlns="http://www.w3.org/2000/svg"
    width="512.000000pt" height="512.000000pt" viewBox="0 0 512.000000 512.000000"
    preserveAspectRatio="xMidYMid meet">

    <g transform="translate(0.000000,512.000000) scale(0.100000,-0.100000)"
        fill="currentColor" stroke="none">
        <path
            d="M25 5095 c-14 -13 -25 -36 -25 -50 0 -14 11 -37 25 -50 23 -24 30
-25 150 -25 l125 0 0 -120 0 -120 -50 0 c-41 0 -56 -5 -75 -25 -14 -13 -25
-36 -25 -50 0 -14 11 -37 25 -50 19 -20 34 -25 75 -25 l50 0 0 -120 0 -120
-129 0 c-128 0 -130 0 -150 -26 -28 -35 -26 -69 4 -99 23 -24 30 -25 150 -25
l125 0 0 -120 0 -120 -54 0 c-47 0 -57 -4 -75 -26 -26 -33 -27 -65 -3 -94 14
-18 32 -24 75 -28 l57 -4 0 -119 0 -119 -129 0 c-128 0 -130 0 -150 -26 -34
-43 -26 -86 20 -109 20 -11 62 -15 144 -15 l115 0 0 -120 0 -120 -53 0 c-43 0
-58 -5 -75 -23 -56 -59 -5 -127 94 -127 l34 0 0 -120 0 -120 -130 0 c-120 0
-131 -2 -150 -22 -23 -25 -26 -65 -6 -90 22 -29 63 -38 177 -38 l109 0 0 -115
0 -115 -34 0 c-46 0 -94 -18 -106 -40 -32 -59 9 -110 88 -110 l52 0 0 -120 0
-120 -115 0 c-82 0 -124 -4 -144 -15 -46 -23 -54 -66 -20 -109 20 -26 22 -26
150 -26 l129 0 0 -119 0 -119 -57 -4 c-43 -4 -61 -10 -75 -28 -24 -29 -23 -61
3 -94 18 -22 28 -26 75 -26 l54 0 0 -120 0 -120 -125 0 c-120 0 -127 -1 -150
-25 -30 -30 -32 -64 -4 -99 20 -26 22 -26 150 -26 l129 0 0 -120 0 -120 -50 0
c-41 0 -56 -5 -75 -25 -32 -31 -32 -69 0 -100 19 -20 34 -25 75 -25 l50 0 0
-120 0 -120 -125 0 c-120 0 -127 -1 -150 -25 -32 -31 -32 -69 0 -100 23 -24
30 -25 150 -25 l125 0 0 -125 c0 -120 1 -127 25 -150 31 -32 69 -32 100 0 24
23 25 30 25 150 l0 125 315 0 315 0 0 -129 c0 -128 0 -130 26 -150 35 -28 69
-26 99 4 25 24 25 27 25 200 0 173 0 176 -25 200 l-24 25 -366 0 -365 0 0
2310 0 2311 -25 24 c-24 25 -27 25 -200 25 -173 0 -176 0 -200 -25z" />
        <path
            d="M4588 4526 c-88 -24 -154 -85 -184 -168 -18 -53 -18 -139 1 -185 l16
-37 -204 -204 -203 -203 -63 17 c-53 15 -71 16 -118 6 -145 -30 -232 -143
-221 -286 6 -70 24 -110 74 -166 l36 -39 -111 -334 -112 -334 -42 -5 c-169
-19 -276 -192 -221 -354 l16 -47 -204 -204 -204 -204 -43 16 c-85 30 -184 14
-257 -42 l-36 -27 -154 77 -154 77 0 48 c0 75 -27 140 -80 192 -195 196 -523
0 -445 -265 l17 -58 -204 -204 -204 -204 -39 17 c-50 21 -155 15 -209 -11
-133 -64 -188 -225 -122 -358 47 -96 134 -150 241 -150 102 0 196 59 241 151
25 52 30 158 10 207 l-17 39 203 203 204 204 65 -18 c57 -15 74 -15 122 -4 31
7 78 27 104 45 l48 33 153 -76 152 -76 0 -47 c0 -105 72 -214 168 -255 48 -21
156 -21 204 0 61 26 125 92 148 153 24 66 25 117 4 180 l-16 47 204 204 205
205 53 -16 c67 -20 93 -20 160 0 101 30 190 149 190 254 0 57 -31 133 -74 178
l-43 45 112 336 111 335 55 11 c72 15 107 34 156 88 65 70 85 170 54 265 l-15
43 205 205 205 205 37 -16 c43 -18 124 -20 179 -3 52 15 131 87 158 143 15 31
21 63 21 109 0 110 -51 195 -144 240 -66 32 -129 39 -189 22z m138 -163 c21
-13 41 -51 45 -83 4 -42 -4 -65 -35 -96 -29 -29 -41 -34 -81 -34 -40 0 -52 5
-81 34 -101 101 32 258 152 179z m-779 -778 c86 -57 50 -198 -54 -212 -106
-14 -174 106 -106 187 14 18 36 36 47 41 28 12 82 4 113 -16z m-375 -1184 c15
-17 30 -42 34 -56 10 -39 -17 -96 -56 -123 -99 -67 -225 54 -164 157 41 69
134 80 186 22z m-1582 -366 c68 -35 79 -135 21 -187 -40 -36 -74 -43 -118 -27
-73 28 -102 108 -61 169 40 59 99 75 158 45z m779 -390 c31 -15 61 -69 61
-107 0 -37 -37 -88 -78 -105 -32 -13 -42 -14 -77 -2 -44 16 -85 67 -85 106 0
91 98 150 179 108z m-1538 -403 c43 -39 52 -113 18 -156 -48 -61 -126 -68
-178 -15 -35 35 -45 80 -27 123 33 78 126 102 187 48z" />
        <path
            d="M1069 3421 l-24 -19 0 -342 0 -342 28 -24 28 -24 283 0 283 0 105
-147 c57 -82 116 -154 130 -162 47 -27 74 -4 186 159 l103 150 285 0 285 0 24
25 25 24 0 341 c0 327 -1 341 -20 360 -20 20 -33 20 -859 20 -811 0 -840 -1
-862 -19z m1591 -366 l0 -235 -268 0 c-313 0 -268 18 -386 -154 l-75 -108 -48
67 c-26 37 -68 95 -93 129 l-45 61 -275 5 -275 5 -3 233 -2 232 735 0 735 0 0
-235z" />
        <path
            d="M1406 429 c-19 -15 -26 -30 -26 -54 0 -24 7 -39 26 -54 25 -20 39
-21 240 -21 l214 0 0 -129 c0 -128 0 -130 26 -150 43 -34 86 -26 109 20 11 20
15 62 15 144 l0 115 310 0 310 0 0 -103 c0 -150 19 -196 80 -196 61 0 80 46
80 196 l0 103 310 0 310 0 0 -115 c0 -82 4 -124 15 -144 23 -46 66 -54 109
-20 26 20 26 22 26 150 l0 129 315 0 315 0 0 -125 c0 -120 1 -127 25 -150 30
-30 64 -32 99 -4 26 20 26 22 26 150 l0 129 315 0 315 0 0 -125 c0 -120 1
-127 25 -150 13 -14 36 -25 50 -25 14 0 37 11 50 25 25 24 25 27 25 200 0 173
0 176 -25 200 l-24 25 -1819 0 -1819 0 -27 -21z" />
    </g>
</svg>