<?xml version="1.0" standalone="no"?>
<!DOCTYPE svg PUBLIC "-//W3C//DTD SVG 20010904//EN" "http://www.w3.org/TR/2001/REC-SVG-20010904/DTD/svg10.dtd">
<svg version="1.0" xmlns="http://www.w3.org/2000/svg"
    width="512.000000pt" height="512.000000pt" viewBox="0 0 512.000000 512.000000"
    preserveAspectRatio="xMidYMid meet">

    <g transform="translate(0.000000,512.000000) scale(0.100000,-0.100000)"
        fill="currentColor" stroke="none">
        <path
            d="M779 4255 c-106 -34 -166 -164 -127 -276 19 -57 49 -90 102 -115 130
-61 277 4 305 135 17 80 -6 169 -55 212 -57 50 -150 68 -225 44z" />
        <path
            d="M755 3391 c-72 -32 -115 -104 -115 -191 0 -128 84 -209 216 -210 82
0 139 30 179 94 25 41 29 58 29 116 0 58 -4 75 -29 116 -40 64 -97 94 -179 94
-37 0 -77 -8 -101 -19z" />
        <path
            d="M770 2547 c-72 -23 -130 -111 -130 -198 0 -167 168 -266 320 -189 83
42 121 136 99 241 -26 121 -158 188 -289 146z" />
        <path
            d="M3566 2335 c-111 -39 -170 -142 -145 -249 11 -47 24 -63 172 -213
l161 -163 -1460 0 c-1271 0 -1467 -2 -1511 -15 -176 -52 -195 -314 -29 -391
l51 -24 1475 0 1475 0 -152 -152 c-190 -192 -209 -228 -179 -330 25 -86 115
-158 198 -158 90 0 94 4 463 369 244 241 357 360 372 391 28 55 30 130 5 180
-9 20 -176 193 -374 389 -318 315 -361 354 -404 367 -57 17 -68 17 -118 -1z" />
    </g>
</svg>