<?xml version="1.0" standalone="no"?>
<!DOCTYPE svg PUBLIC "-//W3C//DTD SVG 20010904//EN" "http://www.w3.org/TR/2001/REC-SVG-20010904/DTD/svg10.dtd">
<svg version="1.0" xmlns="http://www.w3.org/2000/svg"
    width="512.000000pt" height="512.000000pt" viewBox="0 0 512.000000 512.000000"
    preserveAspectRatio="xMidYMid meet">

    <g transform="translate(0.000000,512.000000) scale(0.100000,-0.100000)"
        fill="currentColor" stroke="none">
        <path
            d="M1412 4468 c-47 -16 -707 -679 -744 -749 -49 -90 -30 -182 51 -251
68 -58 148 -69 226 -31 17 8 99 83 183 166 l152 152 0 -1471 c0 -1084 3 -1480
12 -1505 19 -57 49 -90 102 -115 130 -60 277 4 305 134 8 38 11 463 11 1505
l0 1452 158 -157 c86 -86 166 -160 177 -166 152 -74 334 75 294 242 -12 49
-27 66 -367 411 -201 203 -371 367 -391 377 -40 19 -118 22 -169 6z" />
        <path
            d="M2281 1058 c-66 -15 -126 -79 -141 -152 -39 -190 138 -326 311 -238
45 22 59 36 82 81 63 125 8 269 -116 306 -57 17 -73 17 -136 3z" />
        <path
            d="M3142 1061 c-94 -24 -152 -103 -152 -207 1 -156 126 -247 282 -204
160 45 191 294 47 382 -48 30 -124 42 -177 29z" />
        <path
            d="M3979 1055 c-106 -34 -166 -164 -127 -276 19 -57 49 -90 102 -115
130 -61 277 4 305 135 17 80 -6 169 -55 212 -57 50 -150 68 -225 44z" />
    </g>
</svg>